{
  "accessors": [
    {
      "bufferView": 2,
      "componentType": 5126,
      "count": 25912,
      "max": [
        0.22154846787452698,
        0.2552099823951721,
        0.3536505103111267
      ],
      "min": [
        -0.22997745871543884,
        -0.2840041518211365,
        -0.5149063467979431
      ],
      "type": "VEC3"
    },
    {
      "bufferView": 2,
      "byteOffset": 310944,
      "componentType": 5126,
      "count": 25912,
      "max": [
        0.9999243021011353,
        0.9997072219848633,
        0.9999767541885376
      ],
      "min": [
        -0.9996364116668701,
        -0.9988008141517639,
        -0.9998108148574829
      ],
      "type": "VEC3"
    },
    {
      "bufferView": 1,
      "componentType": 5126,
      "count": 25912,
      "max": [
        0.9942100048065186,
        0.9980400204658508
      ],
      "min": [
        0.0019499999471008778,
        0.0019499999471008778
      ],
      "type": "VEC2"
    },
    {
      "bufferView": 0,
      "componentType": 5125,
      "count": 152976,
      "type": "SCALAR"
    },
    {
      "bufferView": 2,
      "byteOffset": 621888,
      "componentType": 5126,
      "count": 2160,
      "max": [
        0.149607315659523,
        0.1522555947303772,
        0.19231656193733215
      ],
      "min": [
        -0.23762570321559906,
        -0.26055261492729187,
        -0.3147639036178589
      ],
      "type": "VEC3"
    },
    {
      "bufferView": 2,
      "byteOffset": 647808,
      "componentType": 5126,
      "count": 2160,
      "max": [
        0.99420565366745,
        0.9657739996910095,
        0.30012619495391846
      ],
      "min": [
        -0.8526519536972046,
        -0.564058244228363,
        -0.10733411461114883
      ],
      "type": "VEC3"
    },
    {
      "bufferView": 1,
      "byteOffset": 207296,
      "componentType": 5126,
      "count": 2160,
      "max": [
        0.9980400204658508,
        0.9201899766921997
      ],
      "min": [
        0.0019499999471008778,
        0.0019499999471008778
      ],
      "type": "VEC2"
    },
    {
      "bufferView": 0,
      "byteOffset": 611904,
      "componentType": 5125,
      "count": 11808,
      "type": "SCALAR"
    },
    {
      "bufferView": 2,
      "byteOffset": 673728,
      "componentType": 5126,
      "count": 5641,
      "max": [
        0.03971489891409874,
        0.04954126104712486,
        0.05878012999892235
      ],
      "min": [
        -0.034947846084833145,
        -0.0434708334505558,
        -0.05660802498459816
      ],
      "type": "VEC3"
    },
    {
      "bufferView": 2,
      "byteOffset": 741420,
      "componentType": 5126,
      "count": 5641,
      "max": [
        0.9991980791091919,
        0.9891650080680847,
        0.9988716840744019
      ],
      "min": [
        -0.9999768733978271,
        -0.9969415068626404,
        -0.9999334812164307
      ],
      "type": "VEC3"
    },
    {
      "bufferView": 1,
      "byteOffset": 224576,
      "componentType": 5126,
      "count": 5641,
      "max": [
        0.9705299735069275,
        0.9980400204658508
      ],
      "min": [
        0.0019499999471008778,
        0.0019499999471008778
      ],
      "type": "VEC2"
    },
    {
      "bufferView": 0,
      "byteOffset": 659136,
      "componentType": 5125,
      "count": 33198,
      "type": "SCALAR"
    }
  ],
  "asset": {
    "extras": {
      "author": "Malopolska`s Virtual Museums (https://sketchfab.com/WirtualneMuzeaMalopolski)",
      "license": "CC-BY-4.0 (http://creativecommons.org/licenses/by/4.0/)",
      "source": "https://sketchfab.com/3d-models/a-bottle-of-alcohol-brazilian-rum-f755e3f9e9e64c8db5ba49b0c821bf36",
      "title": "A bottle of alcohol \"Brazilian Rum\""
    },
    "generator": "Sketchfab-10.93.0",
    "version": "2.0"
  },
  "bufferViews": [
    {
      "buffer": 0,
      "byteLength": 791928,
      "name": "floatBufferViews",
      "target": 34963
    },
    {
      "buffer": 0,
      "byteLength": 269704,
      "byteOffset": 791928,
      "byteStride": 8,
      "name": "floatBufferViews",
      "target": 34962
    },
    {
      "buffer": 0,
      "byteLength": 809112,
      "byteOffset": 1061632,
      "byteStride": 12,
      "name": "floatBufferViews",
      "target": 34962
    }
  ],
  "buffers": [
    {
      "byteLength": 1870744,
      "uri": "scene.bin"
    }
  ],
  "images": [
    {
      "uri": "textures/defaultMat_baseColor.png"
    },
    {
      "uri": "textures/defaultMat.001_baseColor.png"
    },
    {
      "uri": "textures/defaultMat.001_emissive.jpeg"
    },
    {
      "uri": "textures/defaultMat.002_baseColor.jpeg"
    }
  ],
  "materials": [
    {
      "alphaMode": "BLEND",
      "doubleSided": true,
      "name": "defaultMat",
      "pbrMetallicRoughness": {
        "baseColorTexture": {
          "index": 0
        },
        "metallicFactor": 0.810373079425302,
        "roughnessFactor": 0.0
      }
    },
    {
      "alphaMode": "BLEND",
      "emissiveFactor": [
        0.321109145188455,
        0.321109145188455,
        0.321109145188455
      ],
      "emissiveTexture": {
        "index": 2
      },
      "name": "defaultMat.001",
      "pbrMetallicRoughness": {
        "baseColorTexture": {
          "index": 1
        },
        "metallicFactor": 0.0
      }
    },
    {
      "doubleSided": true,
      "name": "defaultMat.002",
      "pbrMetallicRoughness": {
        "baseColorTexture": {
          "index": 3
        },
        "metallicFactor": 0.0
      }
    }
  ],
  "meshes": [
    {
      "name": "Object_0",
      "primitives": [
        {
          "attributes": {
            "NORMAL": 1,
            "POSITION": 0,
            "TEXCOORD_0": 2
          },
          "indices": 3,
          "material": 0,
          "mode": 4
        }
      ]
    },
    {
      "name": "Object_1",
      "primitives": [
        {
          "attributes": {
            "NORMAL": 5,
            "POSITION": 4,
            "TEXCOORD_0": 6
          },
          "indices": 7,
          "material": 1,
          "mode": 4
        }
      ]
    },
    {
      "name": "Object_2",
      "primitives": [
        {
          "attributes": {
            "NORMAL": 9,
            "POSITION": 8,
            "TEXCOORD_0": 10
          },
          "indices": 11,
          "material": 2,
          "mode": 4
        }
      ]
    }
  ],
  "nodes": [
    {
      "children": [
        1
      ],
      "matrix": [
        1.0,
        0.0,
        0.0,
        0.0,
        0.0,
        2.220446049250313e-16,
        -1.0,
        0.0,
        0.0,
        1.0,
        2.220446049250313e-16,
        0.0,
        0.0,
        0.0,
        0.0,
        1.0
      ],
      "name": "Sketchfab_model"
    },
    {
      "children": [
        2
      ],
      "name": "root"
    },
    {
      "children": [
        3,
        5,
        7
      ],
      "matrix": [
        1.0,
        0.0,
        0.0,
        0.0,
        0.0,
        2.220446049250313e-16,
        1.0,
        0.0,
        0.0,
        -1.0,
        2.220446049250313e-16,
        0.0,
        0.0,
        0.0,
        0.0,
        1.0
      ],
      "name": "GLTF_SceneRootNode"
    },
    {
      "children": [
        4
      ],
      "matrix": [
        0.8354006403591515,
        0.04259595553041021,
        0.5479884621595339,
        0.0,
        -0.5385000325190958,
        0.2631513999713113,
        0.8004805154843381,
        0.0,
        -0.11010669854487654,
        -0.9638137399236381,
        0.24277477148574855,
        0.0,
        -0.0034961288329213858,
        -0.008779729716479778,
        0.0019526237156242132,
        1.0
      ],
      "name": "MZ_25_d_Butelka_na_alkohol_edit06_2"
    },
    {
      "mesh": 0,
      "name": "Object_4"
    },
    {
      "children": [
        6
      ],
      "matrix": [
        0.8391917379497401,
        0.04278925849976241,
        0.5504752662607018,
        0.0,
        -0.5409437775645118,
        0.2643455966120541,
        0.8041131434797645,
        0.0,
        -0.11060636926500154,
        -0.9681875837665513,
        0.243876497779422,
        0.0,
        -0.017625106498599052,
        -0.1282787024974823,
        0.1314825862646103,
        1.0
      ],
      "name": "MZ_25_d_etykieta_edit06_3"
    },
    {
      "mesh": 1,
      "name": "Object_6"
    },
    {
      "children": [
        8
      ],
      "matrix": [
        0.8354006403591515,
        0.04259595553041021,
        0.5479884621595339,
        0.0,
        -0.5385000325190958,
        0.2631513999713113,
        0.8004805154843381,
        0.0,
        -0.11010669854487654,
        -0.9638137399236381,
        0.24277477148574855,
        0.0,
        -0.001279850141145289,
        0.4976276457309723,
        -0.0004677435790654272,
        1.0
      ],
      "name": "MZ_25_d_korek_edit06_4"
    },
    {
      "mesh": 2,
      "name": "Object_8"
    }
  ],
  "samplers": [
    {
      "magFilter": 9729,
      "minFilter": 9987,
      "wrapS": 10497,
      "wrapT": 10497
    }
  ],
  "scene": 0,
  "scenes": [
    {
      "name": "Sketchfab_Scene",
      "nodes": [
        0
      ]
    }
  ],
  "textures": [
    {
      "sampler": 0,
      "source": 0
    },
    {
      "sampler": 0,
      "source": 1
    },
    {
      "sampler": 0,
      "source": 2
    },
    {
      "sampler": 0,
      "source": 3
    }
  ]
}
